<?xml version="1.0" encoding="utf-8"?>
<!-- Generator: Adobe Illustrator 15.0.2, SVG Export Plug-In . SVG Version: 6.00 Build 0)  -->
<!DOCTYPE svg PUBLIC "-//W3C//DTD SVG 1.1//EN" "http://www.w3.org/Graphics/SVG/1.1/DTD/svg11.dtd">
<svg version="1.1"
	 id="svg1306" xmlns:rdf="http://www.w3.org/1999/02/22-rdf-syntax-ns#" xmlns:dc="http://purl.org/dc/elements/1.1/" xmlns:cc="http://creativecommons.org/ns#" xmlns:svg="http://www.w3.org/2000/svg"
	 xmlns="http://www.w3.org/2000/svg" xmlns:xlink="http://www.w3.org/1999/xlink" x="0px" y="0px" width="48px" height="48px"
	 viewBox="0 0 48 48" enable-background="new 0 0 48 48" xml:space="preserve">
<g id="layer5">
	
		<radialGradient id="path2492_1_" cx="-62.4434" cy="-980.6284" r="9.6929" gradientTransform="matrix(1.4701 0 0 -0.2874 115.7998 -239.705)" gradientUnits="userSpaceOnUse">
		<stop  offset="0" style="stop-color:#000000"/>
		<stop  offset="1" style="stop-color:#000000;stop-opacity:0"/>
	</radialGradient>
	<path id="path2492" opacity="0.15" fill="url(#path2492_1_)" enable-background="new    " d="M38.25,42.129
		c0,1.538-6.38,2.785-14.25,2.785S9.75,43.667,9.75,42.129l0,0c0-1.539,6.38-2.786,14.25-2.786S38.25,40.59,38.25,42.129z"/>
</g>
<g id="layer2">
	
		<linearGradient id="path2211_1_" gradientUnits="userSpaceOnUse" x1="25.0645" y1="6.5938" x2="15.9572" y2="23.313" gradientTransform="matrix(1 0 0 -1 -0.02 48.0947)">
		<stop  offset="0" style="stop-color:#497FC6"/>
		<stop  offset="1" style="stop-color:#90B3D9"/>
	</linearGradient>
	<linearGradient id="path2211_2_" gradientUnits="userSpaceOnUse" x1="-251.375" y1="409.5371" x2="-251.375" y2="438.2499">
		<stop  offset="0" style="stop-color:#2A5387"/>
		<stop  offset="1" style="stop-color:#3465A4"/>
	</linearGradient>
	<path id="path2211" fill="url(#path2211_1_)" stroke="url(#path2211_2_)" d="M21.677,19.875l-9.293,22.924h3.717l2.014-4.956
		h12.081l2.014,4.956h3.718l-9.294-22.924H21.677z M24.155,22.973l4.782,11.771h-9.564L24.155,22.973z"/>
	<linearGradient id="path2237_1_" gradientUnits="userSpaceOnUse" x1="-253.6084" y1="428.3857" x2="-251.9933" y2="358.8036">
		<stop  offset="0" style="stop-color:#FFFFFF"/>
		<stop  offset="1" style="stop-color:#B3B3B3;stop-opacity:0"/>
	</linearGradient>
	<path id="path2237" opacity="0.6" fill="none" stroke="url(#path2237_1_)" enable-background="new    " d="M15.791,42.18h-2.388
		L22.1,20.495h4.133L35.11,42.18h-2.365l-2.145-4.977l-12.937-0.063L15.791,42.18z"/>
	<linearGradient id="path2239_1_" gradientUnits="userSpaceOnUse" x1="-248.5884" y1="422.3643" x2="-248.5884" y2="438.0974">
		<stop  offset="0" style="stop-color:#FFFFFF"/>
		<stop  offset="1" style="stop-color:#FFFFFF;stop-opacity:0"/>
	</linearGradient>
	<path id="path2239" opacity="0.467" fill="none" stroke="url(#path2239_1_)" enable-background="new    " d="M18.387,35.364h11.505
		l-5.711-14.058L18.387,35.364z"/>
</g>
</svg>
