<?xml version="1.0" encoding="utf-8"?>
<!-- Generator: Adobe Illustrator 15.0.2, SVG Export Plug-In . SVG Version: 6.00 Build 0)  -->
<!DOCTYPE svg PUBLIC "-//W3C//DTD SVG 1.1//EN" "http://www.w3.org/Graphics/SVG/1.1/DTD/svg11.dtd">
<svg version="1.1"
	 id="svg1306" xmlns:rdf="http://www.w3.org/1999/02/22-rdf-syntax-ns#" xmlns:dc="http://purl.org/dc/elements/1.1/" xmlns:cc="http://creativecommons.org/ns#" xmlns:svg="http://www.w3.org/2000/svg"
	 xmlns="http://www.w3.org/2000/svg" xmlns:xlink="http://www.w3.org/1999/xlink" x="0px" y="0px" width="48px" height="48px"
	 viewBox="0 0 48 48" enable-background="new 0 0 48 48" xml:space="preserve">
<g id="layer5">
	
		<radialGradient id="path2492_1_" cx="-62.6133" cy="-974.6768" r="15.6445" gradientTransform="matrix(1.4701 0 0 -0.2874 115.7998 -239.705)" gradientUnits="userSpaceOnUse">
		<stop  offset="0" style="stop-color:#000000"/>
		<stop  offset="1" style="stop-color:#000000;stop-opacity:0"/>
	</radialGradient>
	<path id="path2492" opacity="0.15" fill="url(#path2492_1_)" enable-background="new    " d="M46.75,40.418
		c0,2.483-10.297,4.496-23,4.496c-12.703,0-23-2.013-23-4.496l0,0c0-2.483,10.297-4.496,23-4.496
		C36.453,35.922,46.75,37.935,46.75,40.418z"/>
</g>
<g id="layer2">
	
		<linearGradient id="path2211_1_" gradientUnits="userSpaceOnUse" x1="25.457" y1="8.6904" x2="10.7576" y2="35.676" gradientTransform="matrix(1 0 0 -1 -0.02 48.0947)">
		<stop  offset="0" style="stop-color:#497FC6"/>
		<stop  offset="1" style="stop-color:#90B3D9"/>
	</linearGradient>
	<linearGradient id="path2211_2_" gradientUnits="userSpaceOnUse" x1="-251.375" y1="409.5371" x2="-251.375" y2="438.2499">
		<stop  offset="0" style="stop-color:#2A5387"/>
		<stop  offset="1" style="stop-color:#3465A4"/>
	</linearGradient>
	<path id="path2211" fill="url(#path2211_1_)" stroke="url(#path2211_2_)" d="M20,4.5l-15,37h6l3.25-8h19.5l3.25,8h6l-15-37H20z
		 M24,9.5l7.719,19H16.281L24,9.5z"/>
	<linearGradient id="path2237_1_" gradientUnits="userSpaceOnUse" x1="-253.6084" y1="428.3857" x2="-251.9933" y2="358.8036">
		<stop  offset="0" style="stop-color:#FFFFFF"/>
		<stop  offset="1" style="stop-color:#B3B3B3;stop-opacity:0"/>
	</linearGradient>
	<path id="path2237" opacity="0.6" fill="none" stroke="url(#path2237_1_)" enable-background="new    " d="M10.5,40.5H6.646
		l14.036-35h6.671l14.329,35h-3.817l-3.461-8.031l-20.881-0.101L10.5,40.5z"/>
	<linearGradient id="path2239_1_" gradientUnits="userSpaceOnUse" x1="-248.5884" y1="422.3643" x2="-248.5884" y2="438.0974">
		<stop  offset="0" style="stop-color:#FFFFFF"/>
		<stop  offset="1" style="stop-color:#FFFFFF;stop-opacity:0"/>
	</linearGradient>
	<path id="path2239" opacity="0.467" fill="none" stroke="url(#path2239_1_)" enable-background="new    " d="M14.689,29.5h18.569
		L24.042,6.811L14.689,29.5z"/>
</g>
</svg>
